HIERARCHY
ROOT hip
{
  OFFSET 0 0 0
  CHANNELS 6 Xposition Yposition Zposition Zrotation Yrotation Xrotation
  JOINT abdomen
  {
    OFFSET 0 20.6881 -0.73152
    CHANNELS 3 Zrotation Xrotation Yrotation
    JOINT chest
    {
      OFFSET 0 11.7043 -0.48768
      CHANNELS 3 Zrotation Xrotation Yrotation
      JOINT neck
      {
        OFFSET 0 22.1894 -2.19456
        CHANNELS 3 Zrotation Xrotation Yrotation
        JOINT head
        {
          OFFSET -0.24384 7.07133 1.2192
          CHANNELS 3 Zrotation Xrotation Yrotation
          JOINT leftEye
          {
            OFFSET 4.14528 8.04674 8.04672
            CHANNELS 3 Zrotation Xrotation Yrotation
            End Site
            {
              OFFSET 1 0 0
            }
          }
          JOINT rightEye
          {
            OFFSET -3.6576 8.04674 8.04672
            CHANNELS 3 Zrotation Xrotation Yrotation
            End Site
            {
              OFFSET 1 0 0
            }
          }
        }
      }
      JOINT rCollar
      {
        OFFSET -2.68224 19.2634 -4.8768
        CHANNELS 3 Zrotation Xrotation Yrotation
        JOINT rShldr
        {
          OFFSET -8.77824 -1.95073 1.46304
          CHANNELS 3 Zrotation Xrotation Yrotation
          JOINT rForeArm
          {
            OFFSET -28.1742 -1.7115 0.48768
            CHANNELS 3 Zrotation Xrotation Yrotation
            JOINT rHand
            {
              OFFSET -22.5879 0.773209 7.07136
              CHANNELS 3 Zrotation Xrotation Yrotation
              JOINT rThumb1
              {
                OFFSET -1.2192 -0.487915 3.41376
                CHANNELS 3 Zrotation Xrotation Yrotation
                JOINT rThumb2
                {
                  OFFSET -3.37035 -0.52449 3.41376
                  CHANNELS 3 Zrotation Xrotation Yrotation
                  End Site
                  {
                    OFFSET -1.78271 -1.18214 1.43049
                  }
                }
              }
              JOINT rIndex1
              {
                OFFSET -7.75947 0.938293 5.60832
                CHANNELS 3 Zrotation Xrotation Yrotation
                JOINT rIndex2
                {
                  OFFSET -2.54057 -0.884171 1.56538
                  CHANNELS 3 Zrotation Xrotation Yrotation
                  End Site
                  {
                    OFFSET -1.62519 -0.234802 1.16502
                  }
                }
              }
              JOINT rMid1
              {
                OFFSET -8.24714 1.18213 3.41376
                CHANNELS 3 Zrotation Xrotation Yrotation
                JOINT rMid2
                {
                  OFFSET -3.10165 -0.590103 1.0647
                  CHANNELS 3 Zrotation Xrotation Yrotation
                  End Site
                  {
                    OFFSET -2.48547 -0.328903 0.83742
                  }
                }
              }
              JOINT rRing1
              {
                OFFSET -8.82822 0.546677 1.51678
                CHANNELS 3 Zrotation Xrotation Yrotation
                JOINT rRing2
                {
                  OFFSET -2.60934 -0.819778 -0.0198488
                  CHANNELS 3 Zrotation Xrotation Yrotation
                  End Site
                  {
                    OFFSET -2.33842 -0.294052 0.168128
                  }
                }
              }
              JOINT rPinky1
              {
                OFFSET -8.27202 -0.0477905 -0.4584
                CHANNELS 3 Zrotation Xrotation Yrotation
                JOINT rPinky2
                {
                  OFFSET -1.82734 -0.647385 -0.700984
                  CHANNELS 3 Zrotation Xrotation Yrotation
                  End Site
                  {
                    OFFSET -1.69225 -0.51767 -0.607171
                  }
                }
              }
            }
          }
        }
      }
      JOINT lCollar
      {
        OFFSET 2.68224 19.2634 -4.8768
        CHANNELS 3 Zrotation Xrotation Yrotation
        JOINT lShldr
        {
          OFFSET 8.77824 -1.95073 1.46304
          CHANNELS 3 Zrotation Xrotation Yrotation
          JOINT lForeArm
          {
            OFFSET 28.1742 -1.7115 0.48768
            CHANNELS 3 Zrotation Xrotation Yrotation
            JOINT lHand
            {
              OFFSET 22.5879 0.773209 7.07136
              CHANNELS 3 Zrotation Xrotation Yrotation
              JOINT lThumb1
              {
                OFFSET 1.2192 -0.487915 3.41376
                CHANNELS 3 Zrotation Xrotation Yrotation
                JOINT lThumb2
                {
                  OFFSET 3.37035 -0.52449 3.41376
                  CHANNELS 3 Zrotation Xrotation Yrotation
                  End Site
                  {
                    OFFSET 1.78271 -1.18214 1.43049
                  }
                }
              }
              JOINT lIndex1
              {
                OFFSET 7.75947 0.938293 5.60832
                CHANNELS 3 Zrotation Xrotation Yrotation
                JOINT lIndex2
                {
                  OFFSET 2.54057 -0.884171 1.56538
                  CHANNELS 3 Zrotation Xrotation Yrotation
                  End Site
                  {
                    OFFSET 1.62519 -0.234802 1.16502
                  }
                }
              }
              JOINT lMid1
              {
                OFFSET 8.24714 1.18213 3.41376
                CHANNELS 3 Zrotation Xrotation Yrotation
                JOINT lMid2
                {
                  OFFSET 3.10165 -0.590103 1.0647
                  CHANNELS 3 Zrotation Xrotation Yrotation
                  End Site
                  {
                    OFFSET 2.48547 -0.328903 0.83742
                  }
                }
              }
              JOINT lRing1
              {
                OFFSET 8.82822 0.546677 1.51678
                CHANNELS 3 Zrotation Xrotation Yrotation
                JOINT lRing2
                {
                  OFFSET 2.60934 -0.819778 -0.0198488
                  CHANNELS 3 Zrotation Xrotation Yrotation
                  End Site
                  {
                    OFFSET 2.33842 -0.294052 0.168128
                  }
                }
              }
              JOINT lPinky1
              {
                OFFSET 8.27202 -0.0477905 -0.4584
                CHANNELS 3 Zrotation Xrotation Yrotation
                JOINT lPinky2
                {
                  OFFSET 1.82734 -0.647385 -0.700984
                  CHANNELS 3 Zrotation Xrotation Yrotation
                  End Site
                  {
                    OFFSET 1.69225 -0.51767 -0.607171
                  }
                }
              }
            }
          }
        }
      }
    }
  }
  JOINT rButtock
  {
    OFFSET -8.77824 4.35084 1.2192
    CHANNELS 3 Zrotation Xrotation Yrotation
    JOINT rThigh
    {
      OFFSET 0 -1.70687 -2.19456
      CHANNELS 3 Zrotation Xrotation Yrotation
      JOINT rShin
      {
        OFFSET 0 -36.8199 0.73152
        CHANNELS 3 Zrotation Xrotation Yrotation
        JOINT rFoot
        {
          OFFSET 0.73152 -45.1104 -5.12064
          CHANNELS 3 Zrotation Xrotation Yrotation
          End Site
          {
            OFFSET -1.1221 -3.69964 12.103
          }
        }
      }
    }
  }
  JOINT lButtock
  {
    OFFSET 8.77824 4.35084 1.2192
    CHANNELS 3 Zrotation Xrotation Yrotation
    JOINT lThigh
    {
      OFFSET 0 -1.70687 -2.19456
      CHANNELS 3 Zrotation Xrotation Yrotation
      JOINT lShin
      {
        OFFSET 0 -36.8199 0.73152
        CHANNELS 3 Zrotation Xrotation Yrotation
        JOINT lFoot
        {
          OFFSET -0.73152 -45.1104 -5.12064
          CHANNELS 3 Zrotation Xrotation Yrotation
          End Site
          {
            OFFSET 1.1221 -3.69964 12.103
          }
        }
      }
    }
  }
}
MOTION
Frames:	6
Frame Time:	0.00833333
115.156 67.3154 -73.449 5.512 -25.933 33.3997 -4.40206 33.1669 -5.58518 0.248357 -23.9074 -1.5141 -4.78073 3.75279 1.40483 22.6679 -68.542 19.1067 -0.0 0.0 0.0 -0.0 0.0 0.0 -3.68292e-13 -3.47476e-13 -1.56683e-13 -12.6397 -8.38361 -17.3197 -11.8393 -5.33656 21.2994 -2.31877 -39.017 -6.53883 -2.2824e-09 -7.7701e-10 4.64491e-09 -4.06963e-09 -1.36771e-09 7.94982e-09 -2.2824e-09 -7.77009e-10 4.6449e-09 7.73091 5.47488 0.417314 -2.2824e-09 -7.7701e-10 4.64491e-09 2.90554 0.965183 0.102902 -2.2824e-09 -7.7701e-10 4.64491e-09 10.2786 0.731801 0.0259123 -2.2824e-09 -7.7701e-10 4.64492e-09 2.22167 -0.733487 -0.20892 -3.684e-13 -3.47475e-13 -1.57003e-13 -4.49576 -20.6177 9.29029 14.0273 -6.97829 -25.6092 0.209048 13.147 -1.87926 -5.31441e-09 -1.10479e-08 -2.12297e-09 -9.21423e-09 -1.90642e-08 -3.60172e-09 -5.31442e-09 -1.10479e-08 -2.12296e-09 -7.73091 5.47488 -0.417314 -5.31441e-09 -1.10479e-08 -2.12297e-09 -2.90554 0.965183 -0.102902 -5.31442e-09 -1.10479e-08 -2.12297e-09 -10.2786 0.731801 -0.0259123 -5.31441e-09 -1.10479e-08 -2.12298e-09 -2.22167 -0.733487 0.20892 -2.03217e-16 0.0 -3.88251e-19 -152.34 -65.478 -150.91 -7.00636 82.4944 7.5783 -3.24447 22.0273 11.1866 2.03217e-16 0.0 3.88251e-19 -69.653 -76.6091 -67.4498 2.38861 74.0185 -3.84107 10.2472 -13.3419 25.2695
115.085 67.4234 -73.3809 5.5113 -25.9234 33.7082 -4.48967 32.8884 -5.55375 0.394027 -23.8857 -1.48366 -4.84554 3.79233 1.36721 22.6226 -68.6526 19.0226 -0.0 0.0 0.0 -0.0 0.0 0.0 -3.48159e-13 -4.96267e-13 -3.76502e-13 -12.433 -8.44895 -18.2297 -11.8358 -5.33413 21.2926 -2.2517 -38.5519 -6.43104 -3.08767e-09 -9.43027e-10 5.0221e-09 -5.47559e-09 -1.68916e-09 8.58345e-09 -3.08767e-09 -9.43027e-10 5.02209e-09 7.73091 5.47488 0.417314 -3.08768e-09 -9.43027e-10 5.0221e-09 2.90554 0.965183 0.102902 -3.08767e-09 -9.43027e-10 5.0221e-09 10.2786 0.731801 0.0259123 -3.08768e-09 -9.43027e-10 5.02212e-09 2.22167 -0.733487 -0.20892 -3.48242e-13 -4.96265e-13 -3.76747e-13 -4.05587 -21.0067 10.9777 13.4954 -6.55892 -24.5364 0.266786 14.6882 -2.10988 -5.30418e-09 -1.14182e-08 -3.62258e-09 -9.21358e-09 -1.97267e-08 -6.18909e-09 -5.30419e-09 -1.14182e-08 -3.62257e-09 -7.73091 5.47488 -0.417314 -5.30419e-09 -1.14182e-08 -3.62258e-09 -2.90554 0.965183 -0.102902 -5.30419e-09 -1.14182e-08 -3.62258e-09 -10.2786 0.731801 -0.0259123 -5.30418e-09 -1.14182e-08 -3.62259e-09 -2.22167 -0.733487 0.20892 -2.03217e-16 0.0 -3.88251e-19 -152.776 -66.1645 -150.675 -6.80248 82.2695 7.33729 -2.70973 20.6585 9.99851 2.03217e-16 0.0 3.88251e-19 -69.1954 -76.5226 -66.9412 2.33725 73.7436 -3.77554 10.2191 -13.2457 25.3402
115.007 67.5484 -73.3509 5.4844 -25.9237 34.1091 -4.48376 32.6269 -5.54166 0.485123 -23.8684 -1.46364 -4.89844 3.84774 1.34904 22.6934 -68.7524 19.0615 -0.0 0.0 0.0 -0.0 0.0 0.0 -3.14845e-13 -5.82042e-13 -5.21512e-13 -12.2133 -8.17212 -19.0339 -11.8304 -5.33037 21.2821 -2.24363 -38.5007 -6.41874 -3.42423e-09 -1.01977e-09 4.68389e-09 -6.0502e-09 -1.8451e-09 7.99398e-09 -3.42423e-09 -1.01977e-09 4.68389e-09 7.73091 5.47488 0.417314 -3.42424e-09 -1.01977e-09 4.68389e-09 2.90554 0.965183 0.102902 -3.42423e-09 -1.01977e-09 4.68389e-09 10.2786 0.731801 0.0259123 -3.42424e-09 -1.01977e-09 4.68391e-09 2.22167 -0.733487 -0.20892 -3.14925e-13 -5.82042e-13 -5.2171e-13 -3.62548 -21.372 12.592 13.0221 -6.19177 -23.6063 0.313953 15.743 -2.27054 -4.78266e-09 -1.07207e-08 -4.51374e-09 -8.3221e-09 -1.85397e-08 -7.73363e-09 -4.78267e-09 -1.07207e-08 -4.51373e-09 -7.73091 5.47488 -0.417314 -4.78266e-09 -1.07207e-08 -4.51374e-09 -2.90554 0.965183 -0.102902 -4.78266e-09 -1.07207e-08 -4.51374e-09 -10.2786 0.731801 -0.0259123 -4.78265e-09 -1.07207e-08 -4.51375e-09 -2.22167 -0.733487 0.20892 -2.03217e-16 0.0 -3.88251e-19 -153.133 -66.9058 -150.405 -6.54304 81.9784 7.04564 -2.29235 19.4298 8.98705 2.03217e-16 0.0 3.88251e-19 -68.588 -76.4531 -66.342 2.28907 73.4745 -3.7127 10.1862 -13.2611 25.2856
114.873 67.6871 -73.2402 5.4823 -26.0296 34.1623 -4.34738 32.3949 -5.56191 0.495719 -23.8578 -1.46059 -4.93778 3.91679 1.35662 22.9435 -68.8373 19.283 -0.0 0.0 0.0 -0.0 0.0 0.0 -2.44016e-13 -5.638e-13 -5.56691e-13 -11.9406 -7.27615 -19.7008 -11.8234 -5.32555 21.2686 -2.34027 -39.1858 -6.57615 -2.93634e-09 -9.24804e-10 2.99815e-09 -5.16024e-09 -1.6867e-09 5.09988e-09 -2.93634e-09 -9.24803e-10 2.99814e-09 7.73091 5.47488 0.417314 -2.93634e-09 -9.24803e-10 2.99815e-09 2.90554 0.965183 0.102902 -2.93634e-09 -9.24803e-10 2.99815e-09 10.2786 0.731801 0.0259123 -2.93634e-09 -9.24802e-10 2.99817e-09 2.22167 -0.733487 -0.20892 -2.44132e-13 -5.63807e-13 -5.56885e-13 -3.2054 -21.7057 14.1162 12.6299 -5.89454 -22.8476 0.331721 16.0972 -2.32517 -3.17562e-09 -7.99285e-09 -4.41262e-09 -5.54277e-09 -1.38391e-08 -7.58073e-09 -3.17563e-09 -7.99285e-09 -4.4126e-09 -7.73091 5.47488 -0.417314 -3.17563e-09 -7.99285e-09 -4.41262e-09 -2.90554 0.965183 -0.102902 -3.17563e-09 -7.99285e-09 -4.41262e-09 -10.2786 0.731801 -0.0259123 -3.17562e-09 -7.99285e-09 -4.41263e-09 -2.22167 -0.733487 0.20892 -2.03217e-16 0.0 -3.88251e-19 -153.35 -67.7143 -150.041 -6.22053 81.6002 6.69798 -2.00065 18.3798 8.26106 2.03217e-16 0.0 3.88251e-19 -67.7957 -76.4035 -65.6273 2.24493 73.2169 -3.65383 10.1548 -13.4746 25.0342
114.739 67.8988 -72.962 5.5113 -26.1 33.8022 -4.13246 32.1712 -5.60884 0.459335 -23.8523 -1.46956 -4.964 4.00041 1.38356 23.2963 -68.8996 19.6153 -0.0 0.0 0.0 -0.0 0.0 0.0 -1.46239e-13 -4.86219e-13 -5.33811e-13 -11.6226 -5.97295 -20.2613 -11.8161 -5.32045 21.2544 -2.51771 -40.3565 -6.85528 -1.96226e-09 -7.15769e-10 3.81385e-10 -3.40283e-09 -1.32164e-09 6.11496e-10 -1.96226e-09 -7.15768e-10 3.81378e-10 7.73091 5.47488 0.417314 -1.96226e-09 -7.15768e-10 3.8139e-10 2.90554 0.965183 0.102902 -1.96226e-09 -7.15769e-10 3.81388e-10 10.2786 0.731801 0.0259123 -1.96226e-09 -7.15766e-10 3.81404e-10 2.22167 -0.733487 -0.20892 -1.46415e-13 -4.86237e-13 -5.34019e-13 -2.80264 -22.0392 15.5704 12.3125 -5.66548 -22.2264 0.326941 15.993 -2.3092 -7.85721e-10 -3.93392e-09 -3.75331e-09 -1.40331e-09 -6.83735e-09 -6.47571e-09 -7.85731e-10 -3.93392e-09 -3.75329e-09 -7.73091 5.47488 -0.417314 -7.85725e-10 -3.93392e-09 -3.75331e-09 -2.90554 0.965183 -0.102902 -7.85728e-10 -3.93392e-09 -3.75331e-09 -10.2786 0.731801 -0.0259123 -7.85714e-10 -3.93392e-09 -3.75332e-09 -2.22167 -0.733487 0.20892 -2.03217e-16 0.0 -3.88251e-19 -153.484 -68.5739 -149.6 -5.87674 81.1636 6.33385 -1.78205 17.4383 7.7115 2.03217e-16 0.0 3.88251e-19 -66.899 -76.3606 -64.8544 2.20421 72.9711 -3.59877 10.1269 -13.8438 24.6436
114.714 68.0515 -72.9457 5.8456 -25.8215 34.037 -3.88435 31.9435 -5.65672 0.409204 -23.8479 -1.47952 -4.98071 4.10291 1.42047 23.672 -68.9532 19.9831 -0.0 0.0 0.0 -0.0 0.0 0.0 -6.83406e-14 -4.08041e-13 -4.92842e-13 -11.3039 -4.7435 -20.7704 -11.8065 -5.31388 21.236 -2.70195 -41.4749 -7.13433 -1.04871e-09 -5.34892e-10 -2.05648e-09 -1.7549e-09 -1.00404e-09 -3.57048e-09 -1.0487e-09 -5.34892e-10 -2.05649e-09 7.73091 5.47488 0.417314 -1.04871e-09 -5.34891e-10 -2.05647e-09 2.90554 0.965183 0.102902 -1.04871e-09 -5.34892e-10 -2.05648e-09 10.2786 0.731801 0.0259123 -1.04871e-09 -5.34889e-10 -2.05646e-09 2.22167 -0.733487 -0.20892 -6.85747e-14 -4.08071e-13 -4.93073e-13 -2.41965 -22.3736 16.9752 12.0449 -5.47916 -21.6989 0.314427 15.7317 -2.26906 1.32207e-09 -1.85466e-10 -3.07386e-09 2.24876e-09 -3.69134e-10 -5.33244e-09 1.32206e-09 -1.85463e-10 -3.07385e-09 -7.73091 5.47488 -0.417314 1.32207e-09 -1.85467e-10 -3.07387e-09 -2.90554 0.965183 -0.102902 1.32206e-09 -1.85464e-10 -3.07387e-09 -10.2786 0.731801 -0.0259123 1.32208e-09 -1.85465e-10 -3.07387e-09 -2.22167 -0.733487 0.20892 -2.03217e-16 0.0 -3.88251e-19 -153.601 -69.4683 -149.171 -5.54094 80.6943 5.97937 -1.58888 16.5912 7.1431 2.03217e-16 0.0 3.88251e-19 -65.9124 -76.3254 -64.0323 2.16465 72.7241 -3.544 10.082 -14.2071 24.2311
